<svg xmlns="http://www.w3.org/2000/svg" xmlns:xlink="http://www.w3.org/1999/xlink" width="100" zoomAndPan="magnify" viewBox="0 0 75 74.999997" height="100" preserveAspectRatio="xMidYMid meet" version="1.0"><defs><g/></defs><path fill="#dd2828" d="M 3.761719 0 L 71.46875 0 C 73.546875 0 75.230469 1.683594 75.230469 3.761719 L 75.230469 71.46875 C 75.230469 73.546875 73.546875 75.230469 71.46875 75.230469 L 3.761719 75.230469 C 1.683594 75.230469 0 73.546875 0 71.46875 L 0 3.761719 C 0 1.683594 1.683594 0 3.761719 0 " fill-opacity="1" fill-rule="nonzero"/><g fill="#ffffff" fill-opacity="1"><g transform="translate(38.197774, 45.116419)"><g/></g></g><g fill="#ffffff" fill-opacity="1"><g transform="translate(10.151042, 47.624995)"><g><path d="M 14.15625 0 L 13.1875 -3.671875 L 6.8125 -3.671875 L 5.828125 0 L 0 0 L 6.390625 -19.6875 L 13.46875 -19.6875 L 19.9375 0 Z M 12.078125 -8.015625 L 11.234375 -11.234375 C 11.035156 -11.953125 10.796875 -12.878906 10.515625 -14.015625 C 10.234375 -15.148438 10.050781 -15.960938 9.96875 -16.453125 C 9.882812 -15.992188 9.722656 -15.242188 9.484375 -14.203125 C 9.253906 -13.160156 8.726562 -11.097656 7.90625 -8.015625 Z M 12.078125 -8.015625 "/></g></g></g><g fill="#ffffff" fill-opacity="1"><g transform="translate(30.095391, 47.624995)"><g><path d="M 10.765625 0 L 5.46875 0 L 5.46875 -15.28125 L 0.6875 -15.28125 L 0.6875 -19.609375 L 15.546875 -19.609375 L 15.546875 -15.28125 L 10.765625 -15.28125 Z M 10.765625 0 "/></g></g></g><g fill="#ffffff" fill-opacity="1"><g transform="translate(46.324485, 47.624995)"><g><path d="M 2.125 -19.609375 L 8.953125 -19.609375 C 11.617188 -19.609375 13.597656 -19.210938 14.890625 -18.421875 C 16.179688 -17.628906 16.828125 -16.398438 16.828125 -14.734375 C 16.828125 -13.628906 16.546875 -12.6875 15.984375 -11.90625 C 15.421875 -11.132812 14.679688 -10.632812 13.765625 -10.40625 L 13.765625 -10.28125 C 14.972656 -9.957031 15.847656 -9.414062 16.390625 -8.65625 C 16.941406 -7.90625 17.21875 -6.929688 17.21875 -5.734375 C 17.21875 -3.960938 16.550781 -2.5625 15.21875 -1.53125 C 13.882812 -0.507812 12.0625 0 9.75 0 L 2.125 0 Z M 7.421875 -12.078125 L 9.015625 -12.078125 C 9.773438 -12.078125 10.363281 -12.234375 10.78125 -12.546875 C 11.195312 -12.867188 11.40625 -13.335938 11.40625 -13.953125 C 11.40625 -15.046875 10.570312 -15.59375 8.90625 -15.59375 L 7.421875 -15.59375 Z M 7.421875 -8.203125 L 7.421875 -4.09375 L 9.28125 -4.09375 C 10.9375 -4.09375 11.765625 -4.789062 11.765625 -6.1875 C 11.765625 -6.832031 11.539062 -7.328125 11.09375 -7.671875 C 10.65625 -8.023438 10.015625 -8.203125 9.171875 -8.203125 Z M 7.421875 -8.203125 "/></g></g></g></svg>