<svg xmlns="http://www.w3.org/2000/svg" xmlns:xlink="http://www.w3.org/1999/xlink" width="100" zoomAndPan="magnify" viewBox="0 0 75 74.999997" height="100" preserveAspectRatio="xMidYMid meet" version="1.0"><defs><g/></defs><path fill="#19d131" d="M 3.761719 0 L 71.46875 0 C 73.546875 0 75.230469 1.683594 75.230469 3.761719 L 75.230469 71.46875 C 75.230469 73.546875 73.546875 75.230469 71.46875 75.230469 L 3.761719 75.230469 C 1.683594 75.230469 0 73.546875 0 71.46875 L 0 3.761719 C 0 1.683594 1.683594 0 3.761719 0 " fill-opacity="1" fill-rule="nonzero"/><g fill="#ffffff" fill-opacity="1"><g transform="translate(38.197774, 45.116419)"><g/></g></g><g fill="#ffffff" fill-opacity="1"><g transform="translate(7.880208, 47.624995)"><g><path d="M 10 -11.484375 L 18.453125 -11.484375 L 18.453125 -0.90625 C 16.160156 -0.125 13.632812 0.265625 10.875 0.265625 C 7.851562 0.265625 5.515625 -0.609375 3.859375 -2.359375 C 2.210938 -4.109375 1.390625 -6.609375 1.390625 -9.859375 C 1.390625 -13.023438 2.289062 -15.488281 4.09375 -17.25 C 5.90625 -19.007812 8.441406 -19.890625 11.703125 -19.890625 C 12.929688 -19.890625 14.09375 -19.769531 15.1875 -19.53125 C 16.28125 -19.300781 17.234375 -19.007812 18.046875 -18.65625 L 16.375 -14.5 C 14.957031 -15.195312 13.40625 -15.546875 11.71875 -15.546875 C 10.175781 -15.546875 8.984375 -15.039062 8.140625 -14.03125 C 7.296875 -13.03125 6.875 -11.59375 6.875 -9.71875 C 6.875 -7.882812 7.253906 -6.488281 8.015625 -5.53125 C 8.773438 -4.570312 9.875 -4.09375 11.3125 -4.09375 C 12.101562 -4.09375 12.832031 -4.164062 13.5 -4.3125 L 13.5 -7.390625 L 10 -7.390625 Z M 10 -11.484375 "/></g></g></g><g fill="#ffffff" fill-opacity="1"><g transform="translate(28.21352, 47.624995)"><g><path d="M 20.796875 0 L 13.84375 0 L 6.671875 -13.8125 L 6.5625 -13.8125 C 6.726562 -11.644531 6.8125 -9.988281 6.8125 -8.84375 L 6.8125 0 L 2.125 0 L 2.125 -19.609375 L 9.046875 -19.609375 L 16.171875 -5.984375 L 16.25 -5.984375 C 16.125 -7.960938 16.0625 -9.550781 16.0625 -10.75 L 16.0625 -19.609375 L 20.796875 -19.609375 Z M 20.796875 0 "/></g></g></g><g fill="#ffffff" fill-opacity="1"><g transform="translate(51.122026, 47.624995)"><g><path d="M 2.125 0 L 2.125 -19.609375 L 7.421875 -19.609375 L 7.421875 -4.28125 L 14.96875 -4.28125 L 14.96875 0 Z M 2.125 0 "/></g></g></g></svg>